<?xml version="1.0" standalone="no"?>
<!DOCTYPE svg PUBLIC "-//W3C//DTD SVG 20010904//EN"
 "http://www.w3.org/TR/2001/REC-SVG-20010904/DTD/svg10.dtd">
<svg version="1.0" xmlns="http://www.w3.org/2000/svg"
 width="1024.000000pt" height="1024.000000pt" viewBox="0 0 1024.000000 1024.000000"
 preserveAspectRatio="xMidYMid meet">

<g transform="translate(0.000000,1024.000000) scale(0.100000,-0.100000)"
fill="#000000" stroke="none">
<path d="M4670 6870 c-153 -20 -231 -48 -443 -162 -178 -96 -236 -118 -348
-128 -128 -12 -181 -45 -230 -140 -20 -40 -23 -64 -27 -205 -6 -198 5 -256 55
-315 53 -62 99 -79 208 -80 l90 -1 30 -61 c33 -69 98 -127 165 -147 65 -19
159 -14 216 13 63 29 128 96 150 153 l17 43 577 0 577 0 17 -43 c24 -64 70
-112 138 -146 124 -63 282 -30 363 76 19 24 39 60 45 79 l12 34 77 0 c100 0
166 30 210 96 56 85 50 233 -15 364 -65 129 -170 196 -354 225 -315 50 -375
70 -582 196 -229 139 -276 151 -618 155 -146 1 -294 -1 -330 -6z m630 -175
c69 -22 150 -63 312 -158 150 -88 236 -118 418 -147 250 -39 273 -46 329 -96
57 -52 91 -126 91 -202 0 -75 -18 -92 -99 -92 -67 0 -67 0 -84 35 -50 104
-153 168 -273 168 -119 0 -213 -59 -265 -167 l-21 -41 -346 2 c-191 2 -451 3
-579 3 l-231 0 -22 44 c-47 97 -150 159 -265 160 -114 0 -200 -50 -257 -151
l-30 -53 -78 0 c-73 0 -80 2 -99 26 -19 24 -21 40 -21 158 0 147 10 199 44
221 13 9 63 20 111 26 119 13 182 36 380 139 179 93 261 125 354 140 31 5 173
7 316 6 216 -2 269 -6 315 -21z m-982 -659 c78 -40 105 -130 60 -196 -33 -48
-63 -62 -126 -57 -43 3 -59 10 -84 34 -42 42 -50 116 -19 166 36 59 112 83
169 53z m1732 -4 c73 -36 100 -123 60 -189 -25 -42 -68 -63 -126 -63 -41 0
-51 5 -85 39 -37 37 -44 55 -39 111 5 63 65 120 125 120 17 0 46 -8 65 -18z"/>
<path d="M6805 5455 c-235 -40 -467 -170 -611 -343 -151 -181 -230 -389 -241
-632 -13 -308 88 -576 297 -780 188 -185 401 -274 685 -287 320 -15 604 93
811 308 151 158 240 336 274 551 18 110 8 330 -20 433 -30 115 -118 289 -191
380 -233 289 -623 433 -1004 370z m330 -350 c249 -65 438 -294 475 -577 14
-101 1 -243 -29 -331 -58 -167 -176 -305 -322 -375 -105 -51 -150 -61 -269
-62 -180 0 -300 49 -427 176 -134 135 -195 288 -195 494 0 135 21 232 77 345
85 175 239 300 410 335 69 14 217 11 280 -5z"/>
<path d="M2300 4440 l0 -980 705 0 706 0 -1 164 -2 165 -26 5 c-15 3 -238 4
-497 4 l-470 -1 -3 241 -2 242 415 0 415 0 0 175 0 175 -415 0 -415 0 0 220 0
220 475 0 475 0 0 175 0 175 -680 0 -680 0 0 -980z"/>
<path d="M3910 5416 c0 -2 27 -72 61 -157 33 -85 124 -316 201 -514 77 -198
157 -403 178 -455 20 -52 101 -260 180 -463 l143 -367 230 2 229 3 189 495
c104 272 213 558 243 635 144 370 316 816 316 821 0 2 -97 3 -217 2 l-216 -3
-102 -280 c-56 -154 -173 -476 -259 -715 -87 -239 -161 -441 -165 -448 -5 -8
-35 60 -76 170 -69 187 -460 1232 -471 1262 -5 14 -33 16 -235 16 -126 0 -229
-2 -229 -4z"/>
</g>
</svg>
